<svg xmlns="http://www.w3.org/2000/svg" width="669" height="64" viewBox="0 0 669 64">
  <g fill="#F7F7F7" fill-rule="evenodd">
    <path d="M190.216,47.968 L190.216,61.08 L139,61.08 L139,48.496 L169.888,16.112 L139.44,16.112 L139.44,3 L189.248,3 L189.248,15.584 L158.448,47.968 L190.216,47.968 Z M271.967996,47.616 L271.967996,61.08 L224.007996,61.08 L224.007996,3 L270.823996,3 L270.823996,16.464 L241.959996,16.464 L241.959996,25.88 L265.015996,25.88 L265.015996,38.376 L241.959996,38.376 L241.959996,47.616 L271.967996,47.616 Z M351.255992,47.616 L351.255992,61.08 L305.671992,61.08 L305.671992,3 L323.623992,3 L323.623992,47.616 L351.255992,47.616 Z M428.607987,7.048 L407.399987,7.048 L407.399987,61.08 L402.999987,61.08 L402.999987,7.048 L381.791987,7.048 L381.791987,3 L428.607987,3 L428.607987,7.048 Z M504.551983,61.08 L487.919983,35.912 L470.495983,35.912 L470.495983,61.08 L466.095983,61.08 L466.095983,3 L487.655983,3 C493.464012,3 498.083966,4.466652 501.515983,7.4 C504.948,10.333348 506.663983,14.3519745 506.663983,19.456 C506.663983,23.6800211 505.431996,27.1853194 502.967983,29.972 C500.503971,32.7586806 497.130671,34.5626626 492.847983,35.384 L509.743983,61.08 L504.551983,61.08 Z M470.495983,31.776 L487.567983,31.776 C492.26134,31.776 495.854637,30.7200106 498.347983,28.608 C500.841329,26.4959894 502.087983,23.4453533 502.087983,19.456 C502.087983,15.4666467 500.841329,12.401344 498.347983,10.26 C495.854637,8.11865596 492.26134,7.048 487.567983,7.048 L470.495983,7.048 L470.495983,31.776 Z M589.911979,57.032 L589.911979,61.08 L548.815979,61.08 L548.815979,3 L588.503979,3 L588.503979,7.048 L553.215979,7.048 L553.215979,29.488 L581.111979,29.488 L581.111979,33.624 L553.215979,33.624 L553.215979,57.032 L589.911979,57.032 Z M668.583975,57.032 L668.583975,61.08 L623.703975,61.08 L623.703975,57.208 L661.983975,7.048 L624.495975,7.048 L624.495975,3 L667.175975,3 L667.175975,6.872 L628.895975,57.032 L668.583975,57.032 Z"/>
    <polygon points="17.005 24 0 33.865 0 54.115 17.005 64 34 54.115 34 33.865"/>
    <polygon points="75.125 24 58 33.887 58 54.086 75.125 64 92 54.086 92 33.887"/>
    <polygon points="24 13.04 24 20.306 40.146 29.616 40.146 48.624 45.961 52 51.987 48.624 51.987 29.616 68 20.306 68 13.04 46 0"/>
  </g>
</svg>
