<svg xmlns="http://www.w3.org/2000/svg" width="681" height="64" viewBox="0 0 681 64">
  <g fill="#232220" fill-rule="evenodd">
    <path d="M189.944,49.888 L189.944,63 L138.728,63 L138.728,50.416 L169.616,18.032 L139.168,18.032 L139.168,4.92 L188.976,4.92 L188.976,17.504 L158.176,49.888 L189.944,49.888 Z M271.695996,49.536 L271.695996,63 L223.735996,63 L223.735996,4.92 L270.551996,4.92 L270.551996,18.384 L241.687996,18.384 L241.687996,27.8 L264.743996,27.8 L264.743996,40.296 L241.687996,40.296 L241.687996,49.536 L271.695996,49.536 Z M350.983992,49.536 L350.983992,63 L305.399992,63 L305.399992,4.92 L323.351992,4.92 L323.351992,49.536 L350.983992,49.536 Z M434.671987,48.304 C433.029313,53.2320246 430.169341,57.0599864 426.091987,59.788 C422.014634,62.5160136 417.130683,63.88 411.439987,63.88 C406.159961,63.88 401.525341,62.6626788 397.535987,60.228 C393.546634,57.7933212 390.466665,54.3173559 388.295987,49.8 C386.12531,45.2826441 385.039987,40.0026969 385.039987,33.96 C385.039987,27.9173031 386.12531,22.6373559 388.295987,18.12 C390.466665,13.6026441 393.546634,10.1266788 397.535987,7.692 C401.525341,5.25732116 406.130628,4.04 411.351987,4.04 C422.968045,4.04 430.477304,8.82128552 433.879987,18.384 L429.567987,20.408 C428.218647,16.3013128 426.062669,13.2213436 423.099987,11.168 C420.137306,9.1146564 416.309344,8.088 411.615987,8.088 C407.274632,8.088 403.446671,9.12932292 400.131987,11.212 C396.817304,13.2946771 394.250663,16.2866472 392.431987,20.188 C390.613312,24.0893528 389.703987,28.6799736 389.703987,33.96 C389.703987,39.2400264 390.598645,43.8306472 392.387987,47.732 C394.17733,51.6333528 396.699971,54.6253229 399.955987,56.708 C403.212004,58.7906771 407.039965,59.832 411.439987,59.832 C416.133344,59.832 420.122638,58.6880114 423.407987,56.4 C426.693337,54.1119886 428.981314,50.8560211 430.271987,46.632 L434.671987,48.304 Z M506.215983,44.784 L478.407983,44.784 L471.191983,63 L466.527983,63 L489.759983,4.92 L494.951983,4.92 L518.183983,63 L513.519983,63 L506.215983,44.784 Z M504.631983,40.736 L494.511983,15.392 L492.399983,9.232 L492.311983,9.232 L490.199983,15.216 L480.079983,40.736 L504.631983,40.736 Z M572.655979,4.04 C583.568034,4.04 590.871961,8.32262384 594.567979,16.888 L590.783979,19.968 C589.317305,15.8026458 587.131994,12.7813427 584.227979,10.904 C581.323964,9.02665728 577.496003,8.088 572.743979,8.088 C569.341295,8.088 566.378658,8.61599472 563.855979,9.672 C561.3333,10.7280053 559.411986,12.1653242 558.091979,13.984 C556.771972,15.8026758 556.111979,17.8559886 556.111979,20.144 C556.111979,22.3733445 556.669307,24.221326 557.783979,25.688 C558.898651,27.154674 560.790632,28.4013282 563.459979,29.428 C566.129326,30.4546718 569.810622,31.3786626 574.503979,32.2 C582.072017,33.4906731 587.439963,35.3679877 590.607979,37.832 C593.775995,40.2960123 595.359979,43.698645 595.359979,48.04 C595.359979,51.1493489 594.450655,53.9066546 592.631979,56.312 C590.813303,58.7173454 588.246662,60.5799934 584.931979,61.9 C581.617296,63.2200066 577.818667,63.88 573.535979,63.88 C567.434615,63.88 562.286667,62.6626788 558.091979,60.228 C553.897291,57.7933212 551.03732,54.376022 549.511979,49.976 L553.383979,46.984 C554.557318,51.1493542 556.918628,54.331989 560.467979,56.532 C564.01733,58.732011 568.40262,59.832 573.623979,59.832 C578.669338,59.832 582.79063,58.8053436 585.987979,56.752 C589.185328,54.6986564 590.783979,51.8826846 590.783979,48.304 C590.783979,45.1946511 589.478659,42.7306758 586.867979,40.912 C584.257299,39.0933242 579.725345,37.6266722 573.271979,36.512 C567.815952,35.5733286 563.503995,34.4293401 560.335979,33.08 C557.167963,31.7306599 554.894653,30.0586766 553.515979,28.064 C552.137305,26.0693234 551.447979,23.576015 551.447979,20.584 C551.447979,17.591985 552.313304,14.8346793 554.043979,12.312 C555.774654,9.78932072 558.23863,7.78000748 561.435979,6.284 C564.633328,4.78799252 568.373291,4.04 572.655979,4.04 Z M680.279975,4.92 L680.279975,63 L675.879975,63 L675.879975,35.544 L639.975975,35.544 L639.975975,63 L635.575975,63 L635.575975,4.92 L639.975975,4.92 L639.975975,31.408 L675.879975,31.408 L675.879975,4.92 L680.279975,4.92 Z"/>
    <polygon points="17.005 24 0 33.865 0 54.115 17.005 64 34 54.115 34 33.865"/>
    <polygon points="75.125 24 58 33.887 58 54.086 75.125 64 92 54.086 92 33.887"/>
    <polygon points="24 13.04 24 20.306 40.146 29.616 40.146 48.624 45.961 52 51.987 48.624 51.987 29.616 68 20.306 68 13.04 46 0"/>
  </g>
</svg>
